<svg width="25" height="46" viewBox="0 0 25 46" fill="none" xmlns="http://www.w3.org/2000/svg">
<path d="M0.798325 24.4996H6.22325V45.2581C6.22325 45.6679 6.58051 46 7.02148 46H16.2197C16.6606 46 17.0179 45.6679 17.0179 45.2581V24.5974H23.2544C23.6599 24.5974 24.0011 24.3146 24.0474 23.9402L24.9946 16.298C25.0206 16.0878 24.949 15.8772 24.7976 15.7194C24.6461 15.5616 24.4293 15.4712 24.2018 15.4712H17.0183V10.6806C17.0183 9.23657 17.8548 8.50425 19.505 8.50425C19.7402 8.50425 24.2018 8.50425 24.2018 8.50425C24.6427 8.50425 25 8.17201 25 7.76232V0.74741C25 0.337543 24.6427 0.00548047 24.2018 0.00548047H17.7288C17.6832 0.00341406 17.5818 0 17.4324 0C16.3093 0 12.4054 0.204933 9.32163 2.84176C5.90485 5.76384 6.37984 9.26244 6.49332 9.86907V15.471H0.79823C0.357261 15.471 0 15.8031 0 16.2129V23.7576C9.66613e-05 24.1673 0.357356 24.4996 0.798325 24.4996Z" fill="white"/>
</svg>
